# xmcd
#
# Track frame offsets:
#  150
#  22007
#  36407
#  52757
#
# Disc length: 1013 seconds
#
# Revision: 0
# Processed by: cddbd v1.5.1PL2 Copyright (c) Steve Scherf et al.
# Submitted via: Collectorz.com_Music_Collector 6.9
#
DISCID=2b03f304
DTITLE=The Risktaker - The Risktaker
DYEAR=2004
DGENRE=Country
TTITLE0=Nightclub
TTITLE1=In-between Everlasting Nights
TTITLE2=Red Cowboy
TTITLE3=Yoko
EXTD=
EXTT0=
EXTT1=
EXTT2=
EXTT3=
PLAYORDER=
